<svg xmlns="http://www.w3.org/2000/svg" width="88.6" height="88.6" viewBox="0 0 88.6 88.6"><defs><style>.a{fill:#8c9a65;}</style></defs><g transform="translate(251.3 -376.6)"><path class="a" d="M-207,376.6a44.385,44.385,0,0,0-44.3,44.3A44.385,44.385,0,0,0-207,465.2a44.385,44.385,0,0,0,44.3-44.3A44.385,44.385,0,0,0-207,376.6Zm0,85.6a41.312,41.312,0,0,1-41.3-41.3A41.312,41.312,0,0,1-207,379.6a41.312,41.312,0,0,1,41.3,41.3A41.312,41.312,0,0,1-207,462.2Z"/><path class="a" d="M-182.5,402.5-216,436l-15.4-15.5a1.45,1.45,0,0,0-2.1,0,1.45,1.45,0,0,0,0,2.1l16.5,16.6a1.5,1.5,0,0,0,1.1.4h0a2.1,2.1,0,0,0,1.1-.4l34.6-34.5a1.45,1.45,0,0,0,0-2.1A1.605,1.605,0,0,0-182.5,402.5Z"/></g></svg>